<?xml version="1.0" encoding="utf-8"?>
<svg version="1.1" xmlns="http://www.w3.org/2000/svg" xmlns:xlink="http://www.w3.org/1999/xlink" height="423" width="300">
  <defs>
    <path id="path-1" opacity="1" fill-rule="evenodd" d="M38.143341064453125,9.133933067321777 C43.93815231323242,19.935054779052734 43.249576568603516,47.3329963684082 35.76029968261719,49.263458251953125 C32.77358627319336,50.0333251953125 26.41100311279297,48.147464752197266 19.93537712097168,44.24431228637695 L24,73 L0,73 L8.262273788452148,34.49012756347656 C3.6543643474578857,29.081377029418945 0.5356347560882568,22.452877044677734 1.0567762851715088,15.025453567504883 C2.5583300590515137,-6.375020503997803 32.34852981567383,-1.6671888828277588 38.143341064453125,9.133933067321777Z"/>
    <path id="path-2" opacity="1" fill-rule="evenodd" d="M102.77569976692013,25.160437792284803 C102.27870952439235,23.41349900815118 100.94193168409815,21.91775532379993 99.14039973718228,21.47401015014514 C98.70353087695791,21.366373870787417 98.25235681940916,21.322899058746646 97.80283082606829,21.341024509083887 C97.64158422396949,21.347460357392038 97.5963613421053,21.39395607782233 97.5210118465211,21.281197388586694 C97.46510950858988,21.197597032502266 97.46385697979187,20.993357356600765 97.44085000344991,20.895112162019203 C97.36925809425966,20.58960638314663 97.27973524648773,20.287909575721724 97.16924902199155,19.994027726956705 C96.79230377636566,18.99167718892312 96.15885381742557,18.104580873142616 95.39520678606311,17.357300078260607 C93.96686249837919,15.959276213118818 92.03691338838541,14.994424342268426 90.03181255051243,14.819868374890229 C88.93439955577045,14.72438140101217 87.84496319179462,14.902680667916536 86.80747381165109,15.259673233254317 C86.27033672501942,15.444474020388341 85.74948251276157,15.67458843336545 85.24220834957664,15.929001457301908 C85.08946575879048,16.005574917784585 84.59392581276566,16.3806272615381 84.44065584143297,16.356328650578764 C84.27136668599972,16.329534506601966 83.93114031092533,15.908840177397805 83.79349398828333,15.80323972760694 C82.09209842263814,14.497878943718211 79.99108024786665,13.98465287710401 77.87186744424014,14.000348466345315 C75.47986705292566,14.018014213231972 73.176532515995,14.137537110383324 71.18158375364254,15.595716455629855 C70.75928378101582,15.904440158656517 70.3570901917252,16.24245353867742 69.97414599238262,16.598329681349497 C69.77248885590663,16.785691673422477 69.5771602859889,16.980080561097214 69.39086310793033,17.18254709511788 C69.27846512895303,17.304696869129696 69.16903366554993,17.429604863845018 69.06368940138236,17.55786212655743 C68.88490739611171,17.775564546368834 68.91358371332879,17.847081268895106 68.66334164400456,17.695182114438474 C67.703245359063,17.11188410757125 66.59067017360856,16.83908294561151 65.47005243481965,16.976796965021613 C64.80463003024673,17.05862417922524 64.15720448682384,17.25839816446393 63.542476537285246,17.521348538196918 C63.33317238288471,17.610859367217415 62.84870742833682,17.967917604476703 62.62562545715843,17.97139821631682 C62.40432339532453,17.974813156235438 61.92664846531309,17.643826671816303 61.69868822407937,17.559700940359775 C60.46745241565769,17.105185571577064 59.140365192905804,16.993149273478036 57.84623925431149,17.20316807847257 C56.5113072459301,17.419885419461288 55.19997551700553,17.95248470292144 54.06894201242285,18.688469927303444 C53.524948978686396,19.04250725617321 53.05030648681744,19.43476564336279 52.669076274251054,19.961191766200837 C52.50446762116818,20.188482286552965 52.355680384480934,20.42890719120741 52.16911951614912,20.639648387338568 C52.05988582045093,20.76304592785911 51.843593873809,20.88966139253374 51.78498871057684,21.04582922188864 C51.820059516920495,20.95231240565593 50.32506751266996,20.37597562246895 50.183993216475585,20.33913367450087 C49.4324100151148,20.142840301102297 48.66711491954445,20.182637485538407 47.93115536687432,20.42483553207369 C46.5472428902348,20.88027030775756 45.357076841873436,21.90160003110804 44.37891777321355,22.948738819612643 C43.87652188008394,23.48659185679373 43.436884271990344,24.08111976223946 43.06369661275839,24.714525445220133 C42.88484868491943,25.017929722604336 42.721294792929605,25.330002693628103 42.57165056285426,25.64870852872454 C42.49913573770761,25.80310321619863 42.451078185405876,25.996244337364644 42.355556383917246,26.13533746712649 C42.23241302630459,26.314556140932012 42.149680203069096,26.31797108085062 41.92666415445902,26.396120667449587 C40.79404850823677,26.792910417223474 39.761569243285194,27.46453715852398 38.975310770990646,28.37205744189463 C38.180020906836916,29.290216576550176 37.663979042066074,30.420890049217704 37.447621172855825,31.611587658146938 C37.43489811717099,31.68172527032147 37.427317021814765,31.97238919493241 37.386247261754434,32.01034756556619 C37.32994938841331,32.062622415089535 37.10218691488453,32.039505898717394 37.01602611809666,32.04961937463021 C36.71766057390238,32.08462250879597 36.42140455189419,32.13670034255476 36.12910388398489,32.205918547828134 C35.59025281057702,32.333453419403924 35.06577285706185,32.52114377108446 34.56963960792218,32.76662541369532 C32.63560329869289,33.72353098204279 31.25254781544146,35.51749086197882 30.575654883981716,37.53611438540649 C29.865405132954496,39.654559229532 29.877996343502687,42.08159643284114 30.726881255696615,44.16050678021658 C30.86400019779208,44.49628731490608 31.027158554372022,44.822217061368804 31.218795460464115,45.13054673286639 C31.336467244906615,45.31981321066321 31.37443864425613,45.3202729141138 31.2980343875789,45.51886480476528 C31.212862429315745,45.73978514873075 31.057285168092044,45.954466660152605 30.95615994829664,46.170330266161685 C30.62621749387941,46.87479296821805 30.395554427344766,47.621942419257046 30.24986555136834,48.38505014722338 C30.010830318657664,49.63682264315855 29.892367463395374,50.952296902960086 30.12817249025861,52.213591827514435 C30.23766987623003,52.79925402355609 30.428449788934017,53.371781835295366 30.719497928045314,53.893413907863085 C30.867889629322686,54.1593851899856 31.04152967426474,54.41163104051216 31.23758339243392,54.644963377643364 C31.339367837912484,54.76612807283251 31.447480849949304,54.88184199853618 31.560538054609747,54.992696202047995 C31.62520809412689,55.05600393438531 31.70998451698015,55.11143103614121 31.76496393895496,55.182159695609336 C31.899182288044567,55.35461416149916 31.92739714728345,55.212828482955324 31.85817845055257,55.46605941230456 C31.76140412026595,55.820096741174325 31.5420138129132,56.16940569169523 31.407663618686964,56.513920591945784 C31.269226225225182,56.86894299963822 31.14410519056307,57.22882512952253 31.029663611967997,57.592253543168454 C30.79787986177201,58.32817309562895 30.601892066171114,59.07742404815632 30.479342011673292,59.83954669729999 C30.243998442788282,61.30278278050292 30.28533189312188,62.861899869112996 30.97745293786242,64.20482499210644 C31.273379347029042,64.77925728956957 31.697920686978485,65.28315794332912 32.21284186808796,65.67515364283264 C32.46486384675671,65.86691565364691 32.73784920214967,66.03221188009195 33.02421683891058,66.1679557418567 C33.17135601138997,66.23783066634518 33.35923533108808,66.26777706255453 33.42634450563288,66.41008811647046 C33.49859564050627,66.5631036935928 33.391339621857554,66.8669676744276 33.366882349012634,67.03804302996565 C33.15408429849139,68.52630011526458 33.04735566038919,70.08889781571474 33.48976201635204,71.54733984864734 C33.89722941110786,72.89065900316984 34.794369643308464,74.07669390567176 35.95915550286849,74.86193307118756 C38.218783377006204,76.38519329065223 41.26466972343849,76.29929441731488 43.6389369438762,75.0798325067635 C44.25781801521866,74.7619147347252 44.836815932730445,74.36722648643968 45.35331925547949,73.90167823484299 C46.66854041593465,75.67219323879934 49.374991458112305,75.61617508974982 51.297227627613196,75.11168338869669 C53.692062689365244,74.4832030998294 55.613705555751295,72.81796018605635 56.72087509060389,70.63003444897143 C58.23478687196085,72.47298558235522 61.41199097447687,71.87504273699089 62.461807874895314,69.87572675848767 C62.718774046187704,69.38640527130374 62.871187024132276,68.84710745184938 62.94620690687489,68.30137378408688 C62.98569452529566,68.0143874870806 62.96051210419928,67.72490565705687 62.99017725994109,67.44021787730352 C63.028016814153965,67.07744618287269 63.2703481752804,66.72491930819771 63.409642562130266,66.373968559639 C63.68091393074702,65.69098057591697 63.84934609279218,64.98546712311642 63.85659757530686,64.2487595075978 C63.86035516170082,63.86411906330356 63.81163838371594,63.489263735314594 63.775051358301035,63.10770987133142 C63.74215599671177,62.764245721825056 63.83741410792714,62.44422644829837 63.89153653651387,62.1052279894548 C63.2773359675218,62.20636274858287 62.529048894576746,62.04073816253028 61.95038058990653,61.862635911390456 C61.382523586440016,61.68788292824773 60.850660305273536,61.22758843037199 60.449851089917544,60.80722246077537 C59.51922219301285,59.83107501942497 58.95070596386317,58.55145762876884 58.561894655940534,57.27788205489178 C57.70839516396454,54.48262238766636 58.05824623401294,51.12895437182665 60.869777850084915,49.59485828531254 C62.179527437369934,48.880216435421865 66.1033718295493,48.88256052940744 67.66334164400456,49.23576088598945 C69.30358162748124,49.60713560213826 71.16305951194599,53.2263842010684 71.25456003676739,53.56656475449918 C71.31118752295008,53.777108934865794 71.28270897343795,54.037695119424356 71.47612578887453,54.17797034377342 C71.9011945093705,54.486431359114036 72.6022151008336,53.95113952687189 72.91574283574033,53.686941386630195 C73.45676935390262,53.230981235574234 73.84268006881939,52.62430402464882 74.1769074901771,52.00935215161295 C74.90515410235435,50.669644952773574 75.49226049576889,49.23294032586138 75.90697937303938,47.76628930273984 C76.22670382936775,46.63555015815081 76.43112971371298,45.46954519170997 76.8490128742626,44.36763602066459 C77.26485243519443,43.271177619104684 77.92038645452008,42.291155534385084 78.93961528324031,41.6700305007271 C80.04836695973248,40.99433210029287 81.31928815427989,40.63845595762079 82.53648245565043,40.21382131312592 C83.74299730095396,39.79299564007873 84.92868061466987,39.27865315079883 85.86392409135664,38.38571203400379 C86.06953658193153,38.1893529886837 86.26928196392637,37.98071329404093 86.43481353296566,37.749548130319624 C86.56547206336624,37.567045860438526 86.69461437469559,37.217671237996086 86.89370053100728,37.10195731229241 C87.20320698924681,36.92195057542875 87.6549084273421,37.39006003196439 87.92255405470152,37.56001896483677 C89.24298309805357,38.39864940254161 90.34461513716772,39.56826632466558 91.23311951291905,40.845979229597866 C92.11667969604673,42.116730910849924 92.84168299495977,43.3394764174769 93.43083298799208,44.75844962558093 C93.86783369335308,45.81084216780647 94.14056846588954,47.15862701299176 94.90915968987564,48.02109635820536 C95.2522866579559,48.40619650595017 97.80283082606823,48.63917160570326 98.62897245219348,48.302960245333715 C99.45511407831873,47.96674888496416 100.3809965503047,47.093743154538174 100.65826687263815,46.54663037642391 C100.94212945180311,45.986645901693365 101.00996377459937,45.371497012892945 100.88866624889953,44.758449625580916 C100.81733802998257,44.39777943263847 100.67164915400612,44.06088247528327 100.59194876891311,43.706648130649 C100.5248395943683,43.409088654279316 100.46392714124512,43.127815814444574 100.31909525865682,42.85521166824936 C100.04459368419259,42.338636333638064 99.57562053319876,41.96732728941072 99.01007081962327,41.81207886695698 C99.59862750954075,41.269431779505524 100.08632266993607,40.62026483536204 100.42378029714122,39.89459010265739 C100.7744224380094,39.14067644370269 101.07160137597403,38.223830747477365 101.15591634084906,37.396364536429516 C101.22447581189681,36.724278091678435 101.11867008975102,36.027958707889525 100.75075623598427,35.45037415819383 C100.36477959849918,34.844485010326565 99.68103071993465,34.44920571474744 99.08944159187467,34.07126380644742 C99.99310815833849,33.36423989945209 100.76651172981158,32.50439743109896 101.402334901211,31.552417256864874 C102.63884451509792,29.701125789449097 103.40367815269005,27.367539730451142 102.77569976692013,25.160437792284803Z"/>
    <path id="path-3" opacity="1" fill-rule="evenodd" d="M207.4695221433195,-9.658401942459811 C188.34470973395662,5.934126129011734 195.62032095320487,142.64425109272264 194.34379285710298,144.36543107937337 C193.4927741263684,145.51288440380725 103.41916892540773,163.89306641055805 103.41916892540773,163.89306641055805 L106.01111975198893,174.47406429953207 C106.01111975198893,174.47406429953207 211.374299271086,169.2448491656834 217.5151847291312,161.4241533604295 C226.30717393825068,150.22715683649716 239.24804381761712,36.18229313580335 239.24804381761712,36.18229313580335 L207.4695221433195,-9.658401942459811Z"/>
    <path id="path-4" opacity="1" fill-rule="evenodd" d="M113.54008778944102,152.7578104517941 L118.10552689283715,169.7992725652628 C170.46563773951772,175.81152917429912 204.9832519128117,168.3695599242329 217.13293440476144,156.81223000552407 C229.28261689671103,145.25490008681513 238.9217592468326,31.91075220628496 238.9217592468326,31.91075220628496 L204.92640729444014,-16.639641923021056 C159.40104182650973,17.70632309542337 186.53730913483184,130.14045361450377 185.37389486976681,132.71308280720461 C184.2104806047018,135.2857119999057 156.59710558130297,137.31995832976057 113.54008778944102,152.7578104517941Z"/>
    <path id="path-5" opacity="1" fill-rule="evenodd" d="M5.418277594775979,24.352252369694412 C4.376480105828986,23.817796578774708 3.100425185042009,24.288623887502315 2.6554357316608503,25.37166099988739 C2.6554357316608503,25.37166099988739 1.0000000000000004,29.40074151164802 1,32.10567082481627 C1,34.81060013798453 1.9012426137621217,40 1.9012426137621217,40 C5.0391504485432685,40 58.30305480921819,39.999999999999986 58.30305480921819,39.999999999999986 C58.30305480921819,39.999999999999986 60.50157955400674,32.73176087777363 55.76482284857754,32.15222315544669 C51.02806614314825,31.572685433119744 47.89501434138343,31.105670824816276 47.89501434138343,31.105670824816276 L21.679992646828698,19.41888346032934 C21.165423780954697,19.189486094577635 20.563016902233443,19.43024186516509 20.34829451643334,19.951105154500198 L18.663213093007254,24.038695042870316 C18.663213093007254,24.038695042870316 14.27821527920321,26.08463071358387 11.53668113938517,26.08463071358387 C8.795146999567113,26.08463071358387 5.418277594775979,24.352252369694412 5.418277594775979,24.352252369694412Z"/>
    <path id="path-6" opacity="1" fill-rule="evenodd" d="M129.99999999999994,0 L78.25403763081067,124.22690916232216 L27.395810637383434,229.25028973626775 L39.39491244109535,229.25028973626772 L170.6736877525537,0 L129.99999999999994,0Z"/>
    <path id="path-7" opacity="1" fill-rule="evenodd" d="M5.418277594775979,24.352252369694412 C4.376480105828986,23.817796578774708 3.100425185042009,24.288623887502315 2.6554357316608503,25.37166099988739 C2.6554357316608503,25.37166099988739 1.0000000000000004,29.40074151164802 1,32.10567082481627 C1,34.81060013798453 1.9012426137621217,40 1.9012426137621217,40 C5.0391504485432685,40 58.30305480921819,39.999999999999986 58.30305480921819,39.999999999999986 C58.30305480921819,39.999999999999986 60.50157955400674,32.73176087777363 55.76482284857754,32.15222315544669 C51.02806614314825,31.572685433119744 47.89501434138343,31.105670824816276 47.89501434138343,31.105670824816276 L21.679992646828698,19.41888346032934 C21.165423780954697,19.189486094577635 20.563016902233443,19.43024186516509 20.34829451643334,19.951105154500198 L18.663213093007254,24.038695042870316 C18.663213093007254,24.038695042870316 14.27821527920321,26.08463071358387 11.53668113938517,26.08463071358387 C8.795146999567113,26.08463071358387 5.418277594775979,24.352252369694412 5.418277594775979,24.352252369694412Z"/>
    <path id="path-8" opacity="1" fill-rule="evenodd" d="M31.988548814272548,207.43288901946605 L58.65068590694915,212.4328890194659 C79.26577549884874,182.12487453014802 165.54076711514523,57.85183903955338 174.99999999999983,2.842170943040401e-14 L115.64407309313702,2.842170943040401e-14 C84.05488056796014,41.82102198967659 51.63898670644379,176.62352186198967 31.988548814272548,207.43288901946605Z"/>
    <path id="path-9" opacity="1" fill-rule="evenodd" d="M198,77.6170883178711 L234.23455810546875,61.70417404174805 L252.6226806640625,47.281951904296875 C254.3902587890625,46.719207763671875 257.41009521484375,46.549198150634766 254.18817138671875,51.25516891479492 C250.9662322998047,55.96113586425781 247.7888946533203,61.05601501464844 249.0762939453125,62.70529556274414 C249.64002990722656,63.427494049072266 250.67198181152344,63.484405517578125 251.77772521972656,63.545387268066406 C253.19715881347656,63.6236686706543 254.7381591796875,63.708656311035156 255.56634521484375,65.21627807617188 C256.548583984375,67.00431823730469 250.2622833251953,69.14318084716797 236.70748901367188,71.63287353515625 L209.5699462890625,92.43928527832031 L198,77.6170883178711 L198,77.6170883178711ZM51.50828170776367,82 L72,86.06584167480469 L38.84503173828125,147.1302032470703 C35.93118667602539,151.62034606933594 37.89522171020508,159.34852600097656 39.22700119018555,164.5888671875 C39.43303298950195,165.3995819091797 39.62393569946289,166.1507568359375 39.77930450439453,166.82118225097656 C36.36302185058594,167.61642456054688 35.18370056152344,165.62356567382812 33.94038391113281,163.5225830078125 C32.53609085083008,161.14956665039062 31.05015754699707,158.6385955810547 26.167156219482422,159.8511962890625 C24.280607223510742,160.31967163085938 22.45848846435547,160.95291137695312 20.67829132080078,161.57156372070312 C14.529166221618652,163.7085418701172 8.880233764648438,165.6716766357422 2.8038783073425293,160.07073974609375 C1.8405516147613525,159.1827850341797 1.1353508234024048,156.40728759765625 4.4198198318481445,154.98374938964844 C12.602630615234375,151.43719482421875 24.69204330444336,144.7963409423828 26.652341842651367,142.2180938720703 L51.50828170776367,82 L51.50828170776367,82Z"/>
    <path id="path-10" opacity="1" fill-rule="evenodd" d="M123.2802468497049,9.877180267405759 L131.76519837375335,7.646009590186347 C152.12013543721196,24.205074714688003 163.60236639567506,67.26167184595437 176.6126695688376,71.95564633827998 C188.91338480731434,76.39360929719665 205.20859326527454,69.63200965612225 224.50316367869084,60.73903215020931 L231.79605219629568,73.83534282752504 C215.4098260722218,95.00002450883996 178.29861165308824,114.91654465110776 161.8429402518501,106.83980882469963 C135.53374225128923,93.92678711479805 125.04680374839774,40.50140803080941 123.2802468497049,9.877180267405759Z"/>
    <path id="path-11" opacity="1" fill-rule="evenodd" d="M89.99999999999994,113.99999999999991 C89.99999999999994,113.99999999999991 142.00763380444732,113.9999999999998 166.51145070667104,113.99999999999997 C170.0076338044473,114 169.34884477427943,108.95163710899371 168.8434503368546,106.40420552146833 C163.01058773109054,77.00376628567058 140.2413042581468,45.311515477904706 140.24130425814684,3.4607302968085105 L118.17180010451452,0 C99.91748496667677,29.358406822398315 93.60482630085626,65.50454991929624 89.99999999999994,113.99999999999991Z"/>
    <path id="path-12" opacity="1" fill-rule="evenodd" d="M27,141.85882568359375 L116.74805450439453,0 L125.48639678955078,0 C125.48639678955078,0 155.20518493652344,101.305419921875 141.87228393554688,135 L73,135 C74.08963012695312,118.5634536743164 77.5833969116211,101.18120574951172 82.36875915527344,84.23316955566406 L43.037445068359375,145 L27,141.85882568359375Z"/>
  </defs>
  <g opacity="1">
    <g transform="translate(81, 0)" opacity="1">
      <g opacity="1">
        <g opacity="1">
          <use xlink:href="#path-1" fill="rgb(178,139,103)" fill-opacity="1"/>
        </g>
      </g>
      <g opacity="1">
        <use xlink:href="#path-2" fill="rgb(25,24,71)" fill-opacity="1"/>
      </g>
    </g>
    <g transform="translate(96, 423)" opacity="1">
      <g transform="translate(171.3336063715123, 82.4078311785363) rotate(-55.00001966602919) translate(-171.3336063715123, -82.4078311785363)" opacity="1">
        <use xlink:href="#path-3" fill="rgb(178,139,103)" fill-opacity="1"/>
      </g>
      <g transform="translate(176.2309235181367, 77.64661711825445) rotate(-55.00001966602919) translate(-176.2309235181367, -77.64661711825445)" opacity="1">
        <use xlink:href="#path-4" fill="rgb(47,54,118)" fill-opacity="1"/>
      </g>
      <g transform="translate(223.383915048769, 187.2791211634178) rotate(20.00000715128334) translate(-223.383915048769, -187.2791211634178) translate(192.883915048769, 167.2791211634178)" opacity="1">
        <g opacity="1">
          <use xlink:href="#path-5" fill="rgb(228,228,228)" fill-opacity="1"/>
        </g>
      </g>
      <g opacity="1">
        <use xlink:href="#path-6" fill="rgb(153,118,89)" fill-opacity="1"/>
      </g>
      <g transform="translate(24, 199)" opacity="1">
        <g opacity="1">
          <use xlink:href="#path-7" fill="rgb(228,228,228)" fill-opacity="1"/>
        </g>
      </g>
      <g opacity="1">
        <use xlink:href="#path-8" fill="rgb(92,99,171)" fill-opacity="1"/>
      </g>
    </g>
    <g transform="translate(116, 321)" opacity="1">
      <g opacity="1">
        <use xlink:href="#path-9" fill="rgb(178,139,103)" fill-opacity="1"/>
      </g>
      <g transform="translate(177.5381495230003, 58.161767950232665) rotate(5.000001787820835) translate(-177.5381495230003, -58.161767950232665)" opacity="1">
        <use xlink:href="#path-10" fill="rgb(219,39,33)" fill-opacity="1"/>
      </g>
      <g opacity="1">
        <use xlink:href="#path-11" fill="rgb(221,227,233)" fill-opacity="1"/>
      </g>
      <g opacity="1">
        <use xlink:href="#path-12" fill="rgb(255,65,51)" fill-opacity="1"/>
      </g>
    </g>
  </g>
</svg>