<?xml version="1.0" encoding="utf-8"?>
<svg version="1.1" xmlns="http://www.w3.org/2000/svg" xmlns:xlink="http://www.w3.org/1999/xlink" height="434.13301096799205" width="320.00569787412746">
  <defs>
    <path id="path-1" opacity="1" fill-rule="evenodd" d="M38.143341064453125,9.133933067321777 C43.93815231323242,19.935054779052734 43.249576568603516,47.3329963684082 35.76029968261719,49.263458251953125 C32.77358627319336,50.0333251953125 26.41100311279297,48.147464752197266 19.93537712097168,44.24431228637695 L24,73 L0,73 L8.262273788452148,34.49012756347656 C3.6543643474578857,29.081377029418945 0.5356347560882568,22.452877044677734 1.0567762851715088,15.025453567504883 C2.5583300590515137,-6.375020503997803 32.34852981567383,-1.6671888828277588 38.143341064453125,9.133933067321777Z"/>
    <path id="path-2" opacity="1" fill-rule="evenodd" d="M85,20 C90.51914978027344,20 95,24.480850219726562 95,30 C95,35.33946228027344 90.80616760253906,39.707130432128906 85.5356674194336,39.98586654663086 C82.52054595947266,40.91593551635742 78.64824676513672,41.5990104675293 74.35617065429688,41.887046813964844 C74.77330780029297,43.45570373535156 75,45.23775863647461 75,47.251564025878906 C75,49.06471252441406 74.79593658447266,50.98982238769531 74.42082214355469,52.94343948364258 C73.42279815673828,51.744136810302734 72.03434753417969,51 70.5,51 C67.46446990966797,51 65,53.91255187988281 65,57.5 C65,61.08744812011719 67.46446990966797,64 70.5,64 C70.52045440673828,64 70.54087829589844,63.9998664855957 70.561279296875,63.999603271484375 C67.58576202392578,69.70513916015625 63.47308349609375,74 59.36433792114258,74 C51.55362319946289,74 46,63.557281494140625 46,52.329566955566406 C46,51.93508529663086 46.007816314697266,51.54322814941406 46.02323913574219,51.154293060302734 C43.379093170166016,52.96876525878906 40.92898941040039,55.347145080566406 38.461219787597656,57.742671966552734 C33.2177734375,62.83262252807617 27.894563674926758,68 20.46074676513672,68 C5.587229251861572,68 -0.31966447830200195,38 20.46074676513672,38 C34.59300231933594,38 41.544578552246094,40.060482025146484 47.53547286987305,43.10744857788086 C48.71814727783203,39.77330780029297 50.5220947265625,36.97059631347656 52.728004455566406,35.01456832885742 C53.25077819824219,34.42893981933594 54.046043395996094,33.86812210083008 55.069305419921875,33.34717559814453 C55.7340087890625,32.9798583984375 56.42288589477539,32.682613372802734 57.131568908691406,32.46172332763672 C60.74459457397461,31.13956069946289 65.96515655517578,30.207082748413086 71.79060363769531,30.00365447998047 C72.8820571899414,29.965539932250977 73.95411682128906,29.954437255859375 75.00004577636719,29.96858024597168 C75.01701354980469,24.46385383605957 79.49132537841797,20 85,20Z"/>
    <path id="path-3" opacity="1" fill-rule="evenodd" d="M97.40782515449412,98.08807410578447 C97.40782515449412,98.08807410578447 133.39184717090922,108.1528494628292 159.49967843788434,108.1528494628292 C185.6075097048595,108.15284946282918 208,92.65327360316087 208,92.65327360316087 C208,92.65327360316087 172.78636131636165,82.32269789366546 150.00000000000006,82.32269789366546 C127.21363868363845,82.32269789366546 97.40782515449412,98.08807410578447 97.40782515449412,98.08807410578447Z"/>
    <path id="path-4" opacity="1" fill-rule="evenodd" d="M180.2668354502901,117.8243272145278 C180.0355208606511,117.47658508182764 179.8401751186278,117.09831140321627 179.68523124705843,116.6885515146357 C176.47863667979394,108.20848825497387 125.11688497085059,16.7255335941739 120,0 L177.82608730256925,0 C181.71652720476965,12.716659383794989 199.2270178014746,92.51975955378764 201.6913204176924,108.44165428646683 C209.46664824398812,133.5567190200719 225.47527062596032,214.89524463441595 227.518902994219,220.530128996186 C229.6687695751874,226.45793174835794 217.57218411555272,232.63316970842615 214.3487287826464,225.34567121679333 C209.21966709468586,213.75003068381204 196.99864858901606,181.6651016670792 191.55713529310492,162.0742678139052 C186.45572827277778,143.70790318005564 182.30182060534707,127.18450115325062 180.2668354502901,117.8243272145278Z"/>
    <path id="path-5" opacity="1" fill-rule="evenodd" d="M132.95706192592863,128.99359548711755 C109.47531335557247,134.92847391250723 23.584028721832475,145.65768403970912 17.689792597449177,147.34053343497578 C11.626462563142503,149.0716604319627 6.310082318387224,136.5737788219102 13.804685707258066,133.86652586137643 C25.72986509966407,129.55882930428731 58.58913199841226,119.60571209400892 78.51182434430629,115.54404153830158 C94.5364316102106,112.27707970559972 109.15908240433959,109.61124309012273 118.97634497977731,108.05015857682994 C118.14464926907212,80.47344026661563 114.34275570408042,14.293545532091569 116.83468742219009,1.4210854715202004e-14 L168.00000000000003,1.4210854715202004e-14 C165.6104050403536,13.706549064222585 145.41011237638563,113.71771389700318 141.65559973725397,123.72854879940795 C140.46410135147872,127.30248401733733 136.9089188282042,128.88189953555423 132.95706192592863,128.99359548711755Z"/>
    <path id="path-6" opacity="1" fill-rule="evenodd" d="M5.418277594775979,24.352252369694412 C4.376480105828986,23.817796578774708 3.100425185042009,24.288623887502315 2.6554357316608503,25.37166099988739 C2.6554357316608503,25.37166099988739 1.0000000000000004,29.40074151164802 1,32.10567082481627 C1,34.81060013798453 1.9012426137621217,40 1.9012426137621217,40 C5.0391504485432685,40 58.30305480921819,39.999999999999986 58.30305480921819,39.999999999999986 C58.30305480921819,39.999999999999986 60.50157955400674,32.73176087777363 55.76482284857754,32.15222315544669 C51.02806614314825,31.572685433119744 47.89501434138343,31.105670824816276 47.89501434138343,31.105670824816276 L21.679992646828698,19.41888346032934 C21.165423780954697,19.189486094577635 20.563016902233443,19.43024186516509 20.34829451643334,19.951105154500198 L18.663213093007254,24.038695042870316 C18.663213093007254,24.038695042870316 14.27821527920321,26.08463071358387 11.53668113938517,26.08463071358387 C8.795146999567113,26.08463071358387 5.418277594775979,24.352252369694412 5.418277594775979,24.352252369694412Z"/>
    <path id="path-7" opacity="1" fill-rule="evenodd" d="M5.418277594775979,24.352252369694412 C4.376480105828986,23.817796578774708 3.100425185042009,24.288623887502315 2.6554357316608503,25.37166099988739 C2.6554357316608503,25.37166099988739 1.0000000000000004,29.40074151164802 1,32.10567082481627 C1,34.81060013798453 1.9012426137621217,40 1.9012426137621217,40 C5.0391504485432685,40 58.30305480921819,39.999999999999986 58.30305480921819,39.999999999999986 C58.30305480921819,39.999999999999986 60.50157955400674,32.73176087777363 55.76482284857754,32.15222315544669 C51.02806614314825,31.572685433119744 47.89501434138343,31.105670824816276 47.89501434138343,31.105670824816276 L21.679992646828698,19.41888346032934 C21.165423780954697,19.189486094577635 20.563016902233443,19.43024186516509 20.34829451643334,19.951105154500198 L18.663213093007254,24.038695042870316 C18.663213093007254,24.038695042870316 14.27821527920321,26.08463071358387 11.53668113938517,26.08463071358387 C8.795146999567113,26.08463071358387 5.418277594775979,24.352252369694412 5.418277594775979,24.352252369694412Z"/>
    <path id="path-8" opacity="1" fill-rule="evenodd" d="M117.00000000000064,1.0658141036401503e-14 C117.00000000000064,1.0658141036401503e-14 150.8202591611074,-9.676108600839552 181.0000000000005,1.0658141036401503e-14 C188.00000000000003,31.93746819563266 205.00893992169625,44.61347410271792 208.0000000000005,93.5789257456402 C173.99999999999997,110.4727241350591 132.00000000000037,81.53045708433858 97.00000000000041,98.0053109533974 C87.00000000000047,74.96110731651297 101.00000000000063,19.464518114654993 117.00000000000064,1.0658141036401503e-14Z"/>
    <path id="path-9" opacity="1" fill-rule="evenodd" d="M194.0444107055664,89.12251281738281 L222.37232208251953,116.75753784179688 C230.61469268798828,120.27335357666016 237.3681411743164,124.155517578125 242.63269805908203,128.40403747558594 C243.81659698486328,129.8321075439453 245.10547637939453,132.568359375 239.53522491455078,131.34393310546875 C233.96497344970703,130.11949157714844 228.05081939697266,129.0820770263672 227.00391387939453,130.89356994628906 C226.54547882080078,131.68678283691406 226.87928009033203,132.6648712158203 227.23694610595703,133.7130126953125 C227.69611358642578,135.0583953857422 228.1945571899414,136.51902770996094 227.10697174072266,137.8516845703125 C225.81708526611328,139.43218994140625 221.4791030883789,134.40487670898438 214.09296417236328,122.7697525024414 L184.63568878173828,105.40247344970703 L194.0444107055664,89.12251281738281 L194.0444107055664,89.12251281738281ZM36.00457763671875,173.68966674804688 C43.36233139038086,168.64454650878906 53.965301513671875,159.81466674804688 55.39793014526367,156.9082489013672 C58.32839584350586,150.96310424804688 68.30792999267578,93.01988983154297 68.30792999267578,93.01988983154297 L89.205322265625,93.10206604003906 C89.205322265625,93.10206604003906 69.85055541992188,155.58258056640625 68.30792999267578,159.40560913085938 C66.30401611328125,164.37181091308594 69.70793151855469,171.5872802734375 72.01607513427734,176.47998046875 C72.3731689453125,177.2369384765625 72.70403289794922,177.9382781982422 72.98458862304688,178.56710815429688 C69.78189849853516,180.00021362304688 68.24343872070312,178.2679901123047 66.62149810791016,176.4417724609375 C64.78955841064453,174.3791046142578 62.85111999511719,172.196533203125 58.28792190551758,174.31948852539062 C56.524932861328125,175.1396942138672 54.856658935546875,176.10940551757812 53.22677230834961,177.0568084716797 C47.5968017578125,180.32933044433594 42.424808502197266,183.33566284179688 35.3890380859375,178.994384765625 C34.27360534667969,178.30612182617188 33.05127716064453,175.7147216796875 36.00457763671875,173.68966674804688 L36.00457763671875,173.68966674804688Z"/>
    <path id="path-10" opacity="1" fill-rule="evenodd" d="M122.0189903087348,9.231999812004876 L130.50394183278325,7.000829134785435 C148.57617505702558,42.752005212336094 177.41452454900943,74.15010337600802 217.0189903087348,101.19512362580123 L192.0617926508137,137.5650504210472 C151.3388203699806,97.68575531848263 124.67057059564848,55.19859092462739 122.0189903087348,9.231999812004876Z"/>
    <path id="path-11" opacity="1" fill-rule="evenodd" d="M90,113.99999999999994 L167.00000000000006,113.99999999999994 C167.00000000000006,113.99999999999994 140.24130425814684,48.93772021852144 140.24130425814687,3.460730296808512 L117.01420804082306,0 C98.75989290298531,29.358406822398326 93.6048263008563,65.50454991929627 90,113.99999999999994Z"/>
    <path id="path-12" opacity="1" fill-rule="evenodd" d="M55,147 C63.420875549316406,51.99594497680664 116.50396728515625,0 116.50396728515625,0 L116.5224380493164,0.016418924555182457 C116.5254898071289,0.010944997891783714 116.52853393554688,0.005472023040056229 116.53158569335938,0 L118.0477523803711,0 C120.76909637451172,0.09370969980955124 126.33766174316406,0.33767327666282654 126.33766174316406,0.33767327666282654 L131.95016479492188,16.376880645751953 C132.84066772460938,45.7101936340332 142.35113525390625,134.60597229003906 142.35113525390625,134.60597229003906 L91.94989776611328,134.60597229003906 C92.03565216064453,138.68191528320312 92.22547912597656,142.81527709960938 92.53060913085938,147 L55,147Z"/>
    <path id="path-13" opacity="1" fill-rule="evenodd" d="M91.95851135253906,135 C91.55620574951172,117.25031280517578 93.13086700439453,100.58403778076172 95.7577133178711,85.50186157226562 C97.13162994384766,103.39854431152344 100.00303649902344,124.9334945678711 106,135 L91.95851135253906,135Z"/>
    <path id="path-14" opacity="1" fill-rule="evenodd" d="M103.1108989226051,104 L127.99999999999996,92.42927179008626 L127.99999999999996,104 L103.1108989226051,104Z"/>
  </defs>
  <g opacity="1">
    <g transform="translate(220, 80.13301096799205) rotate(32.00001144205335) translate(-220, -80.13301096799205) translate(152, 28.13301096799205)" opacity="1">
      <g opacity="1">
        <g opacity="1">
          <use xlink:href="#path-1" fill="rgb(178,139,103)" fill-opacity="1"/>
        </g>
      </g>
      <g opacity="1">
        <use xlink:href="#path-2" fill="rgb(25,24,71)" fill-opacity="1"/>
      </g>
    </g>
    <g transform="translate(354, 423)" opacity="1">
      <g opacity="1">
        <use xlink:href="#path-3" fill="rgb(31,40,207)" fill-opacity="1"/>
      </g>
      <g opacity="1">
        <use xlink:href="#path-4" fill="rgb(153,118,89)" fill-opacity="1"/>
      </g>
      <g opacity="1">
        <use xlink:href="#path-5" fill="rgb(178,139,103)" fill-opacity="1"/>
      </g>
      <g transform="translate(24.5, 157) rotate(80.00002860513337) translate(-24.5, -157) translate(-6, 137)" opacity="1">
        <g opacity="1">
          <use xlink:href="#path-6" fill="rgb(228,228,228)" fill-opacity="1"/>
        </g>
      </g>
      <g transform="translate(208, 199)" opacity="1">
        <g opacity="1">
          <use xlink:href="#path-7" fill="rgb(228,228,228)" fill-opacity="1"/>
        </g>
      </g>
      <g opacity="1">
        <use xlink:href="#path-8" fill="rgb(43,68,255)" fill-opacity="1"/>
      </g>
    </g>
    <g transform="translate(521, 424.5) rotate(21.00000750884751) translate(-521, -424.5) translate(393, 331)" opacity="1">
      <g opacity="1">
        <use xlink:href="#path-9" fill="rgb(178,139,103)" fill-opacity="1"/>
      </g>
      <g transform="translate(169.5189903087348, 72.28293977791637) rotate(5.000001787820835) translate(-169.5189903087348, -72.28293977791637)" opacity="1">
        <use xlink:href="#path-10" fill="rgb(25,24,71)" fill-opacity="1"/>
      </g>
      <g opacity="1">
        <use xlink:href="#path-11" fill="rgb(221,227,233)" fill-opacity="1"/>
      </g>
      <g opacity="1">
        <use xlink:href="#path-12" fill="rgb(47,54,118)" fill-opacity="1"/>
      </g>
      <g opacity="1">
        <use xlink:href="#path-13" fill="rgb(0,0,0)" fill-opacity="0.1"/>
      </g>
      <g opacity="1">
        <use xlink:href="#path-14" fill="rgb(255,255,255)" fill-opacity="0.2"/>
      </g>
    </g>
  </g>
</svg>