<?xml version="1.0" standalone="no"?>
<!DOCTYPE svg PUBLIC "-//W3C//DTD SVG 20010904//EN"
 "http://www.w3.org/TR/2001/REC-SVG-20010904/DTD/svg10.dtd">
<svg version="1.0" xmlns="http://www.w3.org/2000/svg"
 width="1040.000000pt" height="172.000000pt" viewBox="0 0 1040.000000 172.000000"
 preserveAspectRatio="xMidYMid meet">
<metadata>
Created by potrace 1.15, written by Peter Selinger 2001-2017
</metadata>
<g transform="translate(0.000000,172.000000) scale(0.100000,-0.100000)" stroke="none">
<path d="M9390 1709 c-80 -14 -212 -62 -277 -100 -220 -130 -343 -399 -343
-749 0 -466 207 -763 585 -841 86 -18 124 -20 270 -16 145 4 183 9 258 31 110
33 168 62 245 123 85 69 129 125 178 229 74 155 89 234 88 479 0 195 -2 217
-27 310 -75 280 -235 444 -504 517 -62 16 -114 21 -248 24 -93 1 -195 -2 -225
-7z m311 -369 c53 -15 116 -64 150 -118 50 -78 70 -162 76 -307 14 -343 -84
-521 -298 -541 -81 -8 -164 9 -221 45 -53 34 -110 117 -132 192 -37 126 -38
377 -2 497 37 127 115 211 219 236 64 16 144 14 208 -4z"/>
<path d="M0 861 l0 -841 223 2 222 3 3 276 2 277 148 5 c224 7 348 51 458 161
104 104 143 202 151 381 13 307 -113 481 -402 552 -45 12 -150 16 -432 20
l-373 5 0 -841z m675 454 c118 -59 109 -262 -15 -337 -35 -21 -63 -29 -127
-34 l-83 -7 0 203 0 202 93 -4 c66 -2 103 -9 132 -23z"/>
<path d="M1720 860 l0 -840 225 0 225 0 0 340 0 340 270 0 270 0 0 -340 0
-340 225 0 225 0 0 840 0 840 -225 0 -225 0 -2 -312 -3 -313 -265 0 -265 0 -3
313 -2 312 -225 0 -225 0 0 -840z"/>
<path d="M3760 860 l0 -840 225 0 225 0 0 840 0 840 -225 0 -225 0 0 -840z"/>
<path d="M5578 1688 c-9 -7 -86 -132 -171 -278 -85 -146 -201 -344 -259 -440
-377 -629 -518 -873 -518 -893 0 -8 7 -23 16 -31 14 -14 115 -16 963 -16 906
0 949 1 964 18 10 10 17 25 17 32 0 13 -145 262 -465 800 -145 244 -277 466
-373 630 -112 192 -131 211 -174 178z m112 -285 c41 -70 76 -135 78 -144 2
-10 -53 -111 -121 -226 -68 -114 -209 -352 -312 -528 -103 -176 -196 -332
-207 -347 l-19 -28 -161 0 c-152 0 -160 1 -155 19 2 10 47 90 99 177 52 88
143 242 203 344 104 178 143 244 395 667 63 106 117 193 120 193 3 0 39 -57
80 -127z m234 -395 c44 -73 79 -137 79 -143 0 -10 -45 -88 -286 -490 l-143
-240 -162 -3 c-113 -2 -162 1 -162 9 0 6 101 180 224 387 123 207 234 395 247
418 13 22 44 75 68 117 25 42 48 77 51 77 3 0 41 -60 84 -132z m230 -389 c42
-72 76 -136 76 -142 0 -12 -40 -84 -145 -257 l-51 -85 -162 -3 c-113 -2 -162
1 -162 9 0 6 46 88 102 182 55 95 135 229 176 300 42 70 79 127 82 127 4 0 41
-59 84 -131z m215 -363 c34 -58 61 -109 61 -115 0 -7 -44 -11 -131 -11 -102 0
-130 3 -127 13 5 21 122 217 130 217 3 0 34 -47 67 -104z"/>
<path d="M7010 860 l0 -842 408 5 c454 4 490 9 619 72 103 51 174 120 220 213
38 76 38 77 38 201 0 117 -2 130 -28 186 -45 97 -119 155 -251 199 -24 8 -12
20 37 36 59 19 149 108 183 182 26 57 29 73 29 168 0 95 -3 111 -29 167 -53
115 -158 185 -338 225 -83 19 -135 21 -490 25 l-398 5 0 -842z m670 489 c111
-24 156 -110 109 -206 -35 -70 -76 -87 -216 -91 l-113 -4 0 156 0 156 85 0
c46 0 107 -5 135 -11z m55 -648 c98 -45 132 -144 83 -241 -37 -73 -82 -91
-231 -93 l-122 -2 -3 178 -2 177 117 0 c93 0 126 -4 158 -19z"/>
</g>
</svg>
